<svg xmlns="http://www.w3.org/2000/svg" version="1.1" xmlns:xlink="http://www.w3.org/1999/xlink" viewBox="0 0 200 200"><rect width="200" height="200" fill="url('#gradient')"></rect><defs><linearGradient id="gradient" gradientTransform="rotate(45 0.5 0.5)"><stop offset="0%" stop-color="#000000"></stop><stop offset="100%" stop-color="#000000"></stop></linearGradient></defs><g><g fill="#fefefe" transform="matrix(2.3179760319573903,0,0,2.3179760319573903,12.515441245404126,112.6780779898246)" stroke="#fefffe" stroke-width="0.2"><path d="M1.07-14.22L5.58-14.22L8.75-4.33L11.91-14.22L16.43-14.22L16.43 0L12.99 0L12.99-3.32L13.32-10.12L9.88 0L7.62 0L4.17-10.13L4.50-3.32L4.50 0L1.07 0L1.07-14.22ZM18.05-4.82L18.04-5.38Q18.04-6.96 18.65-8.20Q19.27-9.43 20.42-10.10Q21.57-10.76 23.13-10.76L23.13-10.76Q25.50-10.76 26.87-9.29Q28.23-7.82 28.23-5.29L28.23-5.29L28.23-5.18Q28.23-2.71 26.86-1.25Q25.49 0.20 23.14 0.20L23.14 0.20Q20.89 0.20 19.52-1.16Q18.15-2.51 18.05-4.82L18.05-4.82ZM21.34-5.77L21.33-5.18Q21.33-3.71 21.79-3.03Q22.25-2.34 23.14-2.34L23.14-2.34Q24.90-2.34 24.94-5.05L24.94-5.05L24.94-5.38Q24.94-8.22 23.13-8.22L23.13-8.22Q21.47-8.22 21.34-5.77L21.34-5.77ZM29.28-4.82L29.27-5.38Q29.27-6.96 29.88-8.20Q30.50-9.43 31.65-10.10Q32.80-10.76 34.36-10.76L34.36-10.76Q36.73-10.76 38.10-9.29Q39.46-7.82 39.46-5.29L39.46-5.29L39.46-5.18Q39.46-2.71 38.09-1.25Q36.72 0.20 34.38 0.20L34.38 0.20Q32.12 0.20 30.75-1.16Q29.38-2.51 29.28-4.82L29.28-4.82ZM32.57-5.77L32.56-5.18Q32.56-3.71 33.02-3.03Q33.48-2.34 34.38-2.34L34.38-2.34Q36.13-2.34 36.17-5.05L36.17-5.05L36.17-5.38Q36.17-8.22 34.36-8.22L34.36-8.22Q32.71-8.22 32.57-5.77L32.57-5.77ZM40.50-5.36L40.50-5.36Q40.50-7.87 41.58-9.32Q42.67-10.76 44.61-10.76L44.61-10.76Q46.03-10.76 46.99-9.65L46.99-9.65L46.99-15L50.29-15L50.29 0L47.33 0L47.17-1.13Q46.15 0.20 44.59 0.20L44.59 0.20Q42.71 0.20 41.60-1.25Q40.50-2.70 40.50-5.36ZM43.80-5.76L43.79-5.16Q43.79-2.34 45.43-2.34L45.43-2.34Q46.52-2.34 46.99-3.26L46.99-3.26L46.99-7.29Q46.54-8.22 45.45-8.22L45.45-8.22Q43.93-8.22 43.80-5.76L43.80-5.76ZM55.63-10.57L55.63 0L52.33 0L52.33-10.57L55.63-10.57ZM52.14-13.29L52.14-13.29Q52.14-13.99 52.65-14.44Q53.15-14.89 53.96-14.89Q54.78-14.89 55.28-14.44Q55.79-13.99 55.79-13.29Q55.79-12.59 55.28-12.14Q54.78-11.69 53.96-11.69Q53.15-11.69 52.65-12.14Q52.14-12.59 52.14-13.29ZM61.69 0L58.39 0L58.39-8.28L56.86-8.28L56.86-10.57L58.39-10.57L58.39-11.41Q58.39-13.21 59.45-14.21Q60.52-15.21 62.44-15.21L62.44-15.21Q63.14-15.21 63.98-15L63.98-15L63.99-12.58Q63.69-12.67 63.18-12.67L63.18-12.67Q61.69-12.67 61.69-11.38L61.69-11.38L61.69-10.57L63.75-10.57L63.75-8.28L61.69-8.28L61.69 0ZM67.46-10.57L69.13-4.61L70.89-10.57L74.41-10.57L70.11 1.77L69.92 2.22Q69.00 4.27 66.68 4.27L66.68 4.27Q66.04 4.27 65.32 4.07L65.32 4.07L65.32 1.72L65.75 1.72Q66.45 1.72 66.81 1.52Q67.18 1.32 67.35 0.80L67.35 0.80L67.62 0.10L63.95-10.57L67.46-10.57Z"></path></g></g></svg>